<mxfile host="Electron" modified="2024-02-07T19:40:23.969Z" agent="Mozilla/5.0 (Macintosh; Intel Mac OS X 10_15_7) AppleWebKit/537.36 (KHTML, like Gecko) draw.io/23.0.2 Chrome/120.0.6099.109 Electron/28.1.0 Safari/537.36" etag="5Bi5u7WVxU7muM8ZzaNX" version="23.0.2" type="device">
  <diagram name="Page-1" id="uqgvIvUCK6CzbPvATyQK">
    <mxGraphModel dx="743" dy="569" grid="1" gridSize="10" guides="1" tooltips="1" connect="1" arrows="1" fold="1" page="1" pageScale="1" pageWidth="1100" pageHeight="850" math="0" shadow="0">
      <root>
        <mxCell id="0" />
        <mxCell id="1" parent="0" />
        <mxCell id="HshRdWOyy7-usdvPD1zY-7" value="" style="group" vertex="1" connectable="0" parent="1">
          <mxGeometry x="500" y="230" width="80" height="40" as="geometry" />
        </mxCell>
        <mxCell id="HshRdWOyy7-usdvPD1zY-4" value="" style="rounded=1;whiteSpace=wrap;html=1;" vertex="1" parent="HshRdWOyy7-usdvPD1zY-7">
          <mxGeometry width="80" height="40" as="geometry" />
        </mxCell>
        <mxCell id="HshRdWOyy7-usdvPD1zY-6" value="&lt;font style=&quot;font-size: 20px;&quot;&gt;CASC&lt;/font&gt;" style="text;html=1;strokeColor=none;fillColor=none;align=center;verticalAlign=middle;whiteSpace=wrap;rounded=0;" vertex="1" parent="HshRdWOyy7-usdvPD1zY-7">
          <mxGeometry x="10" y="5" width="60" height="30" as="geometry" />
        </mxCell>
        <mxCell id="HshRdWOyy7-usdvPD1zY-8" value="" style="group" vertex="1" connectable="0" parent="1">
          <mxGeometry x="260" y="190" width="80" height="40" as="geometry" />
        </mxCell>
        <mxCell id="HshRdWOyy7-usdvPD1zY-9" value="" style="rounded=1;whiteSpace=wrap;html=1;" vertex="1" parent="HshRdWOyy7-usdvPD1zY-8">
          <mxGeometry width="80" height="40" as="geometry" />
        </mxCell>
        <mxCell id="HshRdWOyy7-usdvPD1zY-10" value="&lt;font style=&quot;font-size: 20px;&quot;&gt;TSTP&lt;/font&gt;" style="text;html=1;strokeColor=none;fillColor=none;align=center;verticalAlign=middle;whiteSpace=wrap;rounded=0;" vertex="1" parent="HshRdWOyy7-usdvPD1zY-8">
          <mxGeometry x="10" y="5" width="60" height="30" as="geometry" />
        </mxCell>
        <mxCell id="HshRdWOyy7-usdvPD1zY-11" value="" style="group" vertex="1" connectable="0" parent="1">
          <mxGeometry x="500" y="100" width="80" height="40" as="geometry" />
        </mxCell>
        <mxCell id="HshRdWOyy7-usdvPD1zY-12" value="" style="rounded=1;whiteSpace=wrap;html=1;" vertex="1" parent="HshRdWOyy7-usdvPD1zY-11">
          <mxGeometry width="80" height="40" as="geometry" />
        </mxCell>
        <mxCell id="HshRdWOyy7-usdvPD1zY-13" value="&lt;font style=&quot;font-size: 20px;&quot;&gt;TPTP&lt;/font&gt;" style="text;html=1;strokeColor=none;fillColor=none;align=center;verticalAlign=middle;whiteSpace=wrap;rounded=0;" vertex="1" parent="HshRdWOyy7-usdvPD1zY-11">
          <mxGeometry x="10" y="5" width="60" height="30" as="geometry" />
        </mxCell>
        <mxCell id="HshRdWOyy7-usdvPD1zY-14" value="" style="group" vertex="1" connectable="0" parent="1">
          <mxGeometry x="380" y="190" width="80" height="40" as="geometry" />
        </mxCell>
        <mxCell id="HshRdWOyy7-usdvPD1zY-15" value="" style="rounded=1;whiteSpace=wrap;html=1;" vertex="1" parent="HshRdWOyy7-usdvPD1zY-14">
          <mxGeometry width="80" height="40" as="geometry" />
        </mxCell>
        <mxCell id="HshRdWOyy7-usdvPD1zY-16" value="&lt;font style=&quot;font-size: 20px;&quot;&gt;Ratings&lt;/font&gt;" style="text;html=1;strokeColor=none;fillColor=none;align=center;verticalAlign=middle;whiteSpace=wrap;rounded=0;" vertex="1" parent="HshRdWOyy7-usdvPD1zY-14">
          <mxGeometry x="10" y="5" width="60" height="30" as="geometry" />
        </mxCell>
        <mxCell id="HshRdWOyy7-usdvPD1zY-17" value="" style="group" vertex="1" connectable="0" parent="1">
          <mxGeometry x="120" y="100" width="100" height="40" as="geometry" />
        </mxCell>
        <mxCell id="HshRdWOyy7-usdvPD1zY-18" value="" style="rounded=1;whiteSpace=wrap;html=1;" vertex="1" parent="HshRdWOyy7-usdvPD1zY-17">
          <mxGeometry width="100" height="40" as="geometry" />
        </mxCell>
        <mxCell id="HshRdWOyy7-usdvPD1zY-19" value="&lt;font style=&quot;font-size: 20px;&quot;&gt;Language&lt;/font&gt;" style="text;html=1;strokeColor=none;fillColor=none;align=center;verticalAlign=middle;whiteSpace=wrap;rounded=0;" vertex="1" parent="HshRdWOyy7-usdvPD1zY-17">
          <mxGeometry x="20" y="5" width="60" height="30" as="geometry" />
        </mxCell>
        <mxCell id="HshRdWOyy7-usdvPD1zY-20" value="" style="group" vertex="1" connectable="0" parent="1">
          <mxGeometry x="120" y="280" width="80" height="40" as="geometry" />
        </mxCell>
        <mxCell id="HshRdWOyy7-usdvPD1zY-21" value="" style="rounded=1;whiteSpace=wrap;html=1;" vertex="1" parent="HshRdWOyy7-usdvPD1zY-20">
          <mxGeometry width="80" height="40" as="geometry" />
        </mxCell>
        <mxCell id="HshRdWOyy7-usdvPD1zY-22" value="&lt;font style=&quot;font-size: 20px;&quot;&gt;SoT&lt;/font&gt;" style="text;html=1;strokeColor=none;fillColor=none;align=center;verticalAlign=middle;whiteSpace=wrap;rounded=0;" vertex="1" parent="HshRdWOyy7-usdvPD1zY-20">
          <mxGeometry x="10" y="5" width="60" height="30" as="geometry" />
        </mxCell>
        <mxCell id="HshRdWOyy7-usdvPD1zY-23" value="" style="group" vertex="1" connectable="0" parent="1">
          <mxGeometry x="260" y="130" width="80" height="40" as="geometry" />
        </mxCell>
        <mxCell id="HshRdWOyy7-usdvPD1zY-24" value="" style="rounded=1;whiteSpace=wrap;html=1;" vertex="1" parent="HshRdWOyy7-usdvPD1zY-23">
          <mxGeometry width="80" height="40" as="geometry" />
        </mxCell>
        <mxCell id="HshRdWOyy7-usdvPD1zY-25" value="&lt;font style=&quot;font-size: 20px;&quot;&gt;SPCs&lt;/font&gt;" style="text;html=1;strokeColor=none;fillColor=none;align=center;verticalAlign=middle;whiteSpace=wrap;rounded=0;" vertex="1" parent="HshRdWOyy7-usdvPD1zY-23">
          <mxGeometry x="10" y="5" width="60" height="30" as="geometry" />
        </mxCell>
        <mxCell id="HshRdWOyy7-usdvPD1zY-26" value="" style="group" vertex="1" connectable="0" parent="1">
          <mxGeometry x="120" y="150" width="80" height="40" as="geometry" />
        </mxCell>
        <mxCell id="HshRdWOyy7-usdvPD1zY-27" value="" style="rounded=1;whiteSpace=wrap;html=1;" vertex="1" parent="HshRdWOyy7-usdvPD1zY-26">
          <mxGeometry width="80" height="40" as="geometry" />
        </mxCell>
        <mxCell id="HshRdWOyy7-usdvPD1zY-28" value="&lt;font style=&quot;font-size: 20px;&quot;&gt;SZS&lt;/font&gt;" style="text;html=1;strokeColor=none;fillColor=none;align=center;verticalAlign=middle;whiteSpace=wrap;rounded=0;" vertex="1" parent="HshRdWOyy7-usdvPD1zY-26">
          <mxGeometry x="10" y="5" width="60" height="30" as="geometry" />
        </mxCell>
        <mxCell id="HshRdWOyy7-usdvPD1zY-33" value="" style="group" vertex="1" connectable="0" parent="1">
          <mxGeometry x="120" y="230" width="100" height="40" as="geometry" />
        </mxCell>
        <mxCell id="HshRdWOyy7-usdvPD1zY-31" value="" style="rounded=1;whiteSpace=wrap;html=1;" vertex="1" parent="HshRdWOyy7-usdvPD1zY-33">
          <mxGeometry width="100" height="40" as="geometry" />
        </mxCell>
        <mxCell id="HshRdWOyy7-usdvPD1zY-32" value="&lt;font style=&quot;font-size: 20px;&quot;&gt;StarExec&lt;/font&gt;" style="text;html=1;strokeColor=none;fillColor=none;align=center;verticalAlign=middle;whiteSpace=wrap;rounded=0;" vertex="1" parent="HshRdWOyy7-usdvPD1zY-33">
          <mxGeometry x="20" y="5" width="60" height="30" as="geometry" />
        </mxCell>
        <mxCell id="HshRdWOyy7-usdvPD1zY-38" style="edgeStyle=orthogonalEdgeStyle;rounded=0;orthogonalLoop=1;jettySize=auto;html=1;exitX=1;exitY=0.5;exitDx=0;exitDy=0;entryX=0;entryY=0.5;entryDx=0;entryDy=0;" edge="1" parent="1" source="HshRdWOyy7-usdvPD1zY-31" target="HshRdWOyy7-usdvPD1zY-9">
          <mxGeometry relative="1" as="geometry">
            <Array as="points">
              <mxPoint x="220" y="240" />
              <mxPoint x="240" y="240" />
              <mxPoint x="240" y="210" />
            </Array>
          </mxGeometry>
        </mxCell>
        <mxCell id="HshRdWOyy7-usdvPD1zY-39" style="edgeStyle=orthogonalEdgeStyle;rounded=0;orthogonalLoop=1;jettySize=auto;html=1;exitX=1;exitY=0.5;exitDx=0;exitDy=0;" edge="1" parent="1">
          <mxGeometry relative="1" as="geometry">
            <mxPoint x="220" y="240" as="sourcePoint" />
            <mxPoint x="500" y="250" as="targetPoint" />
            <Array as="points">
              <mxPoint x="220" y="250" />
              <mxPoint x="500" y="250" />
            </Array>
          </mxGeometry>
        </mxCell>
        <mxCell id="HshRdWOyy7-usdvPD1zY-42" style="edgeStyle=orthogonalEdgeStyle;rounded=0;orthogonalLoop=1;jettySize=auto;html=1;exitX=1;exitY=0.5;exitDx=0;exitDy=0;entryX=0;entryY=0.5;entryDx=0;entryDy=0;" edge="1" parent="1" source="HshRdWOyy7-usdvPD1zY-15" target="HshRdWOyy7-usdvPD1zY-12">
          <mxGeometry relative="1" as="geometry">
            <Array as="points">
              <mxPoint x="480" y="210" />
              <mxPoint x="480" y="120" />
            </Array>
          </mxGeometry>
        </mxCell>
        <mxCell id="HshRdWOyy7-usdvPD1zY-43" style="edgeStyle=orthogonalEdgeStyle;rounded=0;orthogonalLoop=1;jettySize=auto;html=1;exitX=1;exitY=0.5;exitDx=0;exitDy=0;entryX=0;entryY=0.5;entryDx=0;entryDy=0;" edge="1" parent="1" source="HshRdWOyy7-usdvPD1zY-18" target="HshRdWOyy7-usdvPD1zY-12">
          <mxGeometry relative="1" as="geometry">
            <mxPoint x="280" y="120" as="sourcePoint" />
            <mxPoint x="500" y="120" as="targetPoint" />
            <Array as="points">
              <mxPoint x="220" y="110" />
              <mxPoint x="460" y="110" />
              <mxPoint x="460" y="120" />
            </Array>
          </mxGeometry>
        </mxCell>
        <mxCell id="HshRdWOyy7-usdvPD1zY-47" style="edgeStyle=orthogonalEdgeStyle;rounded=0;orthogonalLoop=1;jettySize=auto;html=1;exitX=1;exitY=0.5;exitDx=0;exitDy=0;entryX=0;entryY=0.5;entryDx=0;entryDy=0;" edge="1" parent="1" source="HshRdWOyy7-usdvPD1zY-24" target="HshRdWOyy7-usdvPD1zY-12">
          <mxGeometry relative="1" as="geometry">
            <Array as="points">
              <mxPoint x="360" y="150" />
              <mxPoint x="360" y="120" />
            </Array>
          </mxGeometry>
        </mxCell>
        <mxCell id="HshRdWOyy7-usdvPD1zY-48" style="edgeStyle=orthogonalEdgeStyle;rounded=0;orthogonalLoop=1;jettySize=auto;html=1;exitX=0.5;exitY=1;exitDx=0;exitDy=0;entryX=0.5;entryY=0;entryDx=0;entryDy=0;" edge="1" parent="1" source="HshRdWOyy7-usdvPD1zY-12" target="HshRdWOyy7-usdvPD1zY-4">
          <mxGeometry relative="1" as="geometry" />
        </mxCell>
        <mxCell id="HshRdWOyy7-usdvPD1zY-49" style="edgeStyle=orthogonalEdgeStyle;rounded=0;orthogonalLoop=1;jettySize=auto;html=1;exitX=1;exitY=0.5;exitDx=0;exitDy=0;entryX=0;entryY=0.5;entryDx=0;entryDy=0;" edge="1" parent="1" source="HshRdWOyy7-usdvPD1zY-9" target="HshRdWOyy7-usdvPD1zY-15">
          <mxGeometry relative="1" as="geometry">
            <mxPoint x="370" y="250" as="targetPoint" />
            <Array as="points" />
          </mxGeometry>
        </mxCell>
        <mxCell id="HshRdWOyy7-usdvPD1zY-51" style="edgeStyle=orthogonalEdgeStyle;rounded=0;orthogonalLoop=1;jettySize=auto;html=1;exitX=1;exitY=0.5;exitDx=0;exitDy=0;entryX=0;entryY=0.5;entryDx=0;entryDy=0;" edge="1" parent="1" source="HshRdWOyy7-usdvPD1zY-18" target="HshRdWOyy7-usdvPD1zY-24">
          <mxGeometry relative="1" as="geometry">
            <mxPoint x="250" y="160" as="targetPoint" />
            <Array as="points">
              <mxPoint x="220" y="130" />
              <mxPoint x="240" y="130" />
              <mxPoint x="240" y="150" />
            </Array>
          </mxGeometry>
        </mxCell>
        <mxCell id="HshRdWOyy7-usdvPD1zY-53" style="edgeStyle=orthogonalEdgeStyle;rounded=0;orthogonalLoop=1;jettySize=auto;html=1;exitX=1;exitY=0.5;exitDx=0;exitDy=0;entryX=0;entryY=0.5;entryDx=0;entryDy=0;" edge="1" parent="1" source="HshRdWOyy7-usdvPD1zY-12" target="HshRdWOyy7-usdvPD1zY-9">
          <mxGeometry relative="1" as="geometry">
            <Array as="points">
              <mxPoint x="600" y="120" />
              <mxPoint x="600" y="80" />
              <mxPoint x="100" y="80" />
              <mxPoint x="100" y="210" />
            </Array>
          </mxGeometry>
        </mxCell>
        <mxCell id="HshRdWOyy7-usdvPD1zY-56" style="edgeStyle=orthogonalEdgeStyle;rounded=0;orthogonalLoop=1;jettySize=auto;html=1;exitX=1;exitY=0.5;exitDx=0;exitDy=0;entryX=0.5;entryY=1;entryDx=0;entryDy=0;" edge="1" parent="1" source="HshRdWOyy7-usdvPD1zY-21" target="HshRdWOyy7-usdvPD1zY-54">
          <mxGeometry relative="1" as="geometry">
            <mxPoint x="640" y="300" as="targetPoint" />
            <Array as="points">
              <mxPoint x="630" y="300" />
            </Array>
          </mxGeometry>
        </mxCell>
        <mxCell id="HshRdWOyy7-usdvPD1zY-57" style="edgeStyle=orthogonalEdgeStyle;rounded=0;orthogonalLoop=1;jettySize=auto;html=1;exitX=1;exitY=0.5;exitDx=0;exitDy=0;" edge="1" parent="1" source="HshRdWOyy7-usdvPD1zY-4" target="HshRdWOyy7-usdvPD1zY-54">
          <mxGeometry relative="1" as="geometry">
            <mxPoint x="640" y="260" as="targetPoint" />
            <Array as="points">
              <mxPoint x="620" y="250" />
            </Array>
          </mxGeometry>
        </mxCell>
        <mxCell id="HshRdWOyy7-usdvPD1zY-63" style="edgeStyle=orthogonalEdgeStyle;rounded=0;orthogonalLoop=1;jettySize=auto;html=1;exitX=1;exitY=0.5;exitDx=0;exitDy=0;" edge="1" parent="1" source="HshRdWOyy7-usdvPD1zY-27" target="HshRdWOyy7-usdvPD1zY-24">
          <mxGeometry relative="1" as="geometry">
            <Array as="points">
              <mxPoint x="240" y="170" />
              <mxPoint x="240" y="150" />
            </Array>
          </mxGeometry>
        </mxCell>
        <mxCell id="HshRdWOyy7-usdvPD1zY-59" style="edgeStyle=orthogonalEdgeStyle;rounded=0;orthogonalLoop=1;jettySize=auto;html=1;exitX=1;exitY=0.5;exitDx=0;exitDy=0;entryX=0.5;entryY=0;entryDx=0;entryDy=0;" edge="1" parent="1" source="HshRdWOyy7-usdvPD1zY-12" target="HshRdWOyy7-usdvPD1zY-54">
          <mxGeometry relative="1" as="geometry">
            <mxPoint x="640.0000000000002" y="260" as="targetPoint" />
            <Array as="points">
              <mxPoint x="630" y="120" />
            </Array>
          </mxGeometry>
        </mxCell>
        <mxCell id="HshRdWOyy7-usdvPD1zY-64" style="edgeStyle=orthogonalEdgeStyle;rounded=0;orthogonalLoop=1;jettySize=auto;html=1;exitX=1;exitY=0.5;exitDx=0;exitDy=0;" edge="1" parent="1" source="HshRdWOyy7-usdvPD1zY-24">
          <mxGeometry relative="1" as="geometry">
            <mxPoint x="400" y="190" as="targetPoint" />
            <Array as="points">
              <mxPoint x="400" y="150" />
            </Array>
          </mxGeometry>
        </mxCell>
        <mxCell id="HshRdWOyy7-usdvPD1zY-54" value="" style="shape=image;verticalLabelPosition=bottom;labelBackgroundColor=default;verticalAlign=top;aspect=fixed;imageAspect=0;image=https://www.svgheart.com/wp-content/uploads/2023/02/smiley-2_430-430-min.png;direction=east;" vertex="1" parent="1">
          <mxGeometry x="600" y="220" width="60" height="60" as="geometry" />
        </mxCell>
        <mxCell id="HshRdWOyy7-usdvPD1zY-71" style="edgeStyle=orthogonalEdgeStyle;rounded=0;orthogonalLoop=1;jettySize=auto;html=1;exitX=1;exitY=0.75;exitDx=0;exitDy=0;entryX=0.5;entryY=1;entryDx=0;entryDy=0;" edge="1" parent="1" source="HshRdWOyy7-usdvPD1zY-31" target="HshRdWOyy7-usdvPD1zY-54">
          <mxGeometry relative="1" as="geometry">
            <Array as="points">
              <mxPoint x="480" y="260" />
              <mxPoint x="480" y="300" />
              <mxPoint x="630" y="300" />
            </Array>
          </mxGeometry>
        </mxCell>
      </root>
    </mxGraphModel>
  </diagram>
</mxfile>
